<?xml version="1.0" standalone="no"?>
<!DOCTYPE svg PUBLIC "-//W3C//DTD SVG 20010904//EN"
 "http://www.w3.org/TR/2001/REC-SVG-20010904/DTD/svg10.dtd">
<svg version="1.0" xmlns="http://www.w3.org/2000/svg"
 width="500.000000pt" height="500.000000pt" viewBox="0 0 500.000000 500.000000"
 preserveAspectRatio="xMidYMid meet">
<metadata>
Created by potrace 1.14, written by Peter Selinger 2001-2017
</metadata>
<g transform="translate(0.000000,500.000000) scale(0.100000,-0.100000)"
fill="#000000" stroke="none">
<path d="M2298 4829 c-406 -43 -762 -167 -1074 -375 -164 -109 -258 -186 -393
-322 -153 -155 -297 -352 -401 -547 -101 -190 -205 -498 -235 -695 -4 -25 -8
-56 -10 -70 -12 -75 -17 -150 -19 -285 -4 -250 21 -444 90 -690 77 -273 248
-601 428 -820 353 -429 808 -705 1353 -819 105 -22 144 -28 273 -42 48 -5 324
-5 380 1 292 27 557 98 809 217 248 118 457 265 651 458 158 157 242 266 377
486 51 82 201 414 188 414 -2 0 2 15 10 33 32 78 90 339 100 456 4 36 8 77 11
91 5 34 5 303 -1 360 -3 25 -7 65 -9 90 -11 112 -73 392 -105 472 -5 12 -28
72 -52 132 -205 525 -629 979 -1152 1230 -114 55 -148 69 -272 111 -142 47
-303 85 -455 105 -99 14 -395 19 -492 9z"/>
</g>
</svg>
