<?xml version="1.0" standalone="no"?>
<!DOCTYPE svg PUBLIC "-//W3C//DTD SVG 20010904//EN"
 "http://www.w3.org/TR/2001/REC-SVG-20010904/DTD/svg10.dtd">
<svg version="1.0" xmlns="http://www.w3.org/2000/svg"
 width="500.000000pt" height="500.000000pt" viewBox="0 0 500.000000 500.000000"
 preserveAspectRatio="xMidYMid meet">
<metadata>
Created by potrace 1.14, written by Peter Selinger 2001-2017
</metadata>
<g transform="translate(0.000000,500.000000) scale(0.100000,-0.100000)"
fill="#000000" stroke="none">
<path d="M2265 4818 c-61 -9 -209 -34 -255 -43 -14 -3 -36 -7 -49 -10 -45 -9
-225 -67 -299 -96 -356 -141 -704 -402 -961 -720 -293 -362 -473 -785 -519
-1224 -12 -113 -8 -403 7 -515 32 -234 104 -472 203 -678 338 -699 986 -1201
1711 -1327 15 -3 39 -7 54 -10 158 -27 550 -27 677 0 12 2 35 6 51 9 85 12
167 30 271 62 361 109 689 309 969 589 124 124 145 149 235 269 219 296 355
592 425 931 32 156 39 236 40 440 0 197 -7 283 -36 426 -20 101 -68 282 -91
337 -85 212 -134 310 -242 477 -272 422 -686 767 -1116 932 -235 91 -355 120
-625 152 -89 11 -371 10 -450 -1z m440 -53 c619 -60 1169 -364 1566 -865 254
-320 415 -671 474 -1030 4 -25 9 -54 11 -65 18 -92 24 -362 11 -505 -9 -110
-21 -175 -62 -360 -20 -92 -119 -342 -182 -460 -65 -122 -233 -375 -273 -410
-3 -3 -18 -21 -34 -40 -110 -137 -316 -318 -504 -444 -160 -106 -454 -245
-573 -270 -13 -3 -49 -12 -79 -20 -242 -68 -635 -91 -858 -52 -9 2 -38 6 -63
10 -81 12 -102 16 -199 42 -632 166 -1181 622 -1485 1234 -36 71 -65 136 -65
143 0 7 -4 17 -9 23 -25 27 -115 347 -127 449 -3 28 -7 56 -10 64 -16 50 -23
330 -11 481 6 79 10 106 22 170 9 44 13 67 19 101 3 19 17 74 31 123 148 511
470 962 910 1278 256 183 543 308 845 369 62 12 68 13 200 28 154 18 306 20
445 6z"/>
<path d="M2358 4508 c-3 -7 -6 -118 -7 -245 l-2 -233 45 0 45 0 3 106 3 105
89 -107 88 -108 54 -1 c30 -1 54 2 54 6 0 4 -24 36 -52 71 -29 35 -74 90 -101
122 l-47 60 22 24 c13 14 57 61 98 104 80 85 89 98 68 99 -7 0 -29 2 -48 3
-33 3 -42 -4 -132 -98 l-97 -101 2 90 c1 50 -2 96 -6 103 -5 6 -23 12 -42 12
-18 0 -35 -6 -37 -12z"/>
<path d="M2996 4452 c-4 -7 -54 -165 -112 -356 -13 -44 -24 -85 -24 -91 0 -13
262 -97 271 -87 4 4 10 21 13 38 l7 31 -84 27 c-47 14 -89 26 -95 26 -6 0 -5
15 1 40 6 22 14 40 17 40 3 0 40 -11 83 -24 l78 -24 10 25 c16 43 11 49 -68
73 -43 13 -79 25 -81 26 -3 1 47 164 51 164 1 0 38 -11 82 -25 103 -32 111
-32 119 6 7 34 1 49 -17 49 -7 0 -62 16 -122 35 -120 38 -122 38 -129 27z"/>
<path d="M1859 4418 c0 -7 -2 -21 -4 -31 -2 -10 -6 -46 -9 -80 -4 -35 -8 -72
-10 -82 -2 -11 -7 -51 -11 -88 -3 -37 -8 -76 -10 -85 -1 -9 -6 -50 -10 -90
l-7 -73 29 7 c49 12 63 23 63 52 0 43 18 56 113 85 l88 27 26 -30 c13 -17 33
-30 43 -30 22 0 70 20 70 30 0 3 -15 22 -32 42 -18 20 -56 62 -84 94 -189 218
-227 259 -240 262 -8 2 -14 -2 -15 -10z m169 -279 c11 -15 6 -19 -50 -38 -34
-12 -65 -21 -69 -21 -4 0 -5 15 -3 33 2 17 5 52 8 77 3 25 5 53 5 63 1 16 35
-20 109 -114z"/>
<path d="M3469 4168 c-35 -51 -90 -133 -124 -183 -97 -142 -97 -125 -5 -185
93 -61 138 -79 199 -80 119 -1 235 125 235 255 0 107 -35 150 -216 268 l-27
17 -62 -92z m149 -65 c54 -44 76 -91 67 -144 -14 -84 -105 -161 -178 -153 -33
4 -120 52 -121 68 -1 13 168 265 178 265 5 1 29 -15 54 -36z"/>
<path d="M1342 4165 c-43 -19 -182 -115 -182 -126 0 -15 261 -384 274 -387 13
-3 149 88 182 122 31 32 44 61 44 96 0 66 -57 130 -117 130 -30 0 -33 3 -28
20 10 30 -5 87 -29 113 -45 49 -85 58 -144 32z m93 -105 c9 -17 13 -39 10 -48
-7 -21 -91 -86 -102 -79 -5 3 -23 25 -41 50 l-32 45 48 31 c62 40 96 41 117 1z
m118 -151 c25 -30 21 -61 -10 -90 -31 -28 -83 -63 -87 -57 -1 2 -18 26 -38 54
l-36 51 54 36 c60 39 88 41 117 6z"/>
<path d="M2478 3718 c-9 -24 3 -37 40 -44 39 -7 86 -35 114 -69 20 -24 40
-110 34 -145 -2 -14 -5 -32 -5 -42 -1 -9 -13 -27 -28 -41 -116 -102 -138 -127
-159 -172 -42 -90 -25 -192 28 -164 16 9 19 17 14 45 -14 73 22 134 136 229
55 46 68 80 64 171 -4 113 -52 196 -133 230 -40 17 -99 18 -105 2z"/>
<path d="M2244 3628 c-5 -17 0 -27 20 -43 45 -36 34 -76 -47 -160 -68 -70 -89
-116 -89 -193 0 -82 19 -129 76 -191 63 -68 73 -87 68 -122 -3 -21 -14 -37
-33 -48 -33 -18 -41 -61 -12 -61 32 0 83 44 93 80 20 71 12 94 -58 170 -12 14
-34 48 -48 77 -46 92 -26 171 64 260 85 84 96 180 28 235 -29 24 -53 22 -62
-4z"/>
<path d="M2793 3420 c-32 -13 -46 -45 -28 -60 12 -10 21 -10 44 0 54 22 98
-23 86 -89 -5 -28 -27 -56 -104 -131 -53 -52 -106 -113 -116 -135 -21 -43 -23
-121 -6 -168 10 -27 10 -27 -32 -27 -121 0 -246 -76 -313 -188 -15 -27 -21
-30 -48 -24 -67 15 -142 6 -190 -22 -48 -28 -112 -103 -122 -143 -4 -13 -7
-23 -8 -23 0 -1 -18 -3 -40 -6 -123 -18 -186 -103 -173 -232 11 -100 72 -160
175 -169 46 -4 67 -1 104 17 l47 22 60 -22 c88 -32 181 -20 253 32 15 10 22
10 39 0 91 -57 248 -64 363 -18 60 25 72 27 90 15 54 -34 94 -49 131 -49 137
0 255 117 255 251 0 127 -105 244 -226 252 -51 3 -49 1 -88 89 -30 69 -100
147 -161 179 -25 13 -45 28 -46 34 0 5 -2 17 -4 25 -21 90 -22 110 -5 147 19
40 49 74 116 133 55 47 90 97 105 147 10 36 10 49 -5 86 -9 25 -25 52 -36 62
-22 20 -86 29 -117 15z m-31 -697 c80 -44 151 -142 165 -230 3 -18 8 -33 12
-34 3 -1 31 -3 62 -4 74 -5 126 -30 165 -82 77 -101 44 -241 -70 -298 -28 -14
-63 -25 -78 -25 -39 0 -97 26 -131 58 -23 22 -30 24 -45 14 -36 -26 -106 -54
-163 -65 -89 -16 -190 8 -271 65 -14 10 -21 9 -38 -10 -59 -63 -167 -76 -257
-30 -33 16 -55 22 -59 16 -11 -17 -87 -48 -121 -48 -86 0 -138 59 -137 157 1
98 43 141 144 145 27 2 50 7 50 11 0 15 46 102 66 126 53 62 143 82 233 51
l50 -16 17 45 c23 62 108 143 176 170 71 28 161 22 230 -16z"/>
<path d="M2637 2638 c-7 -20 6 -43 28 -46 41 -8 75 -33 100 -75 14 -24 25 -51
25 -60 0 -20 10 -25 37 -18 21 6 21 7 5 54 -9 26 -29 62 -44 81 -40 49 -140
92 -151 64z"/>
<path d="M1810 1971 c-62 -88 -84 -195 -49 -237 36 -44 97 -48 148 -12 39 28
41 101 4 180 -29 62 -56 98 -73 98 -5 0 -18 -13 -30 -29z m60 -97 c35 -80 23
-124 -32 -124 -40 0 -54 31 -38 84 12 41 36 86 46 86 2 0 14 -21 24 -46z"/>
<path d="M2462 1965 c-33 -52 -62 -131 -62 -170 0 -50 44 -97 92 -98 97 -3
135 79 87 190 -24 57 -65 113 -82 113 -7 0 -22 -16 -35 -35z m67 -94 c34 -81
25 -121 -29 -121 -32 0 -50 17 -50 48 0 27 39 122 50 122 4 0 17 -22 29 -49z"/>
<path d="M3118 1957 c-66 -106 -77 -186 -30 -229 35 -33 68 -40 107 -24 40 17
65 51 65 88 0 66 -71 208 -103 208 -7 0 -24 -19 -39 -43z m71 -86 c34 -81 25
-121 -29 -121 -32 0 -50 17 -50 48 0 27 39 122 50 122 4 0 17 -22 29 -49z"/>
<path d="M2172 1777 c-32 -34 -76 -138 -75 -178 1 -50 19 -78 60 -95 44 -19
83 -11 114 22 36 38 32 104 -11 188 -41 81 -59 94 -88 63z m48 -96 c11 -22 22
-56 24 -75 6 -47 -26 -73 -68 -57 -21 9 -26 17 -26 46 0 32 33 125 45 125 3 0
14 -18 25 -39z"/>
<path d="M2781 1781 c-10 -10 -31 -45 -46 -77 -52 -109 -32 -193 51 -208 77
-15 135 55 113 137 -14 55 -67 154 -85 161 -8 3 -23 -3 -33 -13z m43 -90 c25
-48 35 -108 22 -127 -13 -17 -62 -22 -76 -8 -20 20 -17 64 5 113 13 28 26 51
29 51 3 0 12 -13 20 -29z"/>
<path d="M1796 1545 c-32 -55 -56 -119 -56 -152 0 -65 58 -111 124 -99 90 17
101 119 26 246 -36 62 -60 64 -94 5z m92 -155 c-2 -28 -9 -37 -30 -44 -22 -8
-32 -6 -49 10 -26 23 -21 73 13 130 l22 38 23 -50 c14 -29 22 -63 21 -84z"/>
<path d="M2450 1538 c-38 -67 -54 -122 -46 -168 13 -80 111 -106 172 -45 37
37 33 95 -13 186 -50 97 -70 102 -113 27z m100 -140 c0 -31 -23 -58 -50 -58
-24 0 -50 26 -50 49 0 24 20 81 39 110 l15 24 23 -49 c13 -27 23 -61 23 -76z"/>
<path d="M3133 1578 c-31 -38 -67 -127 -71 -173 -4 -43 0 -56 19 -79 32 -37
92 -45 136 -17 56 35 56 114 -1 216 -33 61 -62 79 -83 53z m61 -125 c25 -74
20 -97 -25 -108 -32 -8 -59 16 -59 51 0 14 10 48 21 75 25 58 39 54 63 -18z"/>
<path d="M3472 1248 c-38 -24 -37 -33 11 -109 16 -27 28 -51 26 -52 -2 -2 -21
-14 -41 -26 l-37 -22 -71 45 c-39 25 -75 46 -80 46 -5 0 -25 -10 -46 -22 -36
-21 -36 -22 -17 -37 12 -9 48 -33 82 -53 57 -36 60 -39 51 -64 -23 -61 -3
-131 57 -190 35 -36 75 -45 133 -31 49 12 210 107 210 123 0 8 -11 31 -24 52
-13 20 -63 105 -111 187 -48 83 -93 155 -99 162 -9 10 -18 8 -44 -9z m145
-390 c-12 -10 -41 -25 -65 -34 -53 -21 -85 -9 -109 40 -23 49 -6 83 59 124
l52 31 42 -72 43 -72 -22 -17z"/>
<path d="M1514 1173 l-59 -86 -146 -61 c-86 -35 -145 -65 -142 -72 2 -6 21
-20 41 -31 l37 -21 99 44 c54 24 99 44 100 44 1 0 1 -51 -1 -112 l-3 -113 33
-22 c18 -13 38 -23 44 -23 8 0 12 49 12 158 l1 157 59 86 c33 47 56 90 53 95
-7 9 -58 44 -65 44 -2 0 -30 -39 -63 -87z"/>
<path d="M1881 1013 c-56 -190 -111 -389 -111 -399 0 -13 68 -40 77 -31 3 3
22 66 42 139 35 125 38 131 51 108 7 -14 27 -52 45 -85 18 -33 56 -104 84
-157 29 -54 58 -98 65 -98 8 0 21 27 30 63 10 34 26 91 36 127 60 203 78 276
71 283 -4 4 -23 10 -42 13 l-35 6 -33 -124 c-19 -67 -37 -129 -41 -137 -5 -8
-27 26 -63 95 -95 186 -135 258 -146 262 -5 2 -19 -27 -30 -65z"/>
<path d="M3065 1036 c-36 -10 -41 -16 -49 -53 -10 -43 -10 -44 -84 -58 -13 -2
-31 -6 -40 -9 -9 -3 -33 -8 -53 -11 -34 -5 -39 -3 -58 28 -21 34 -21 34 -66
24 -25 -6 -44 -14 -43 -19 8 -23 315 -427 325 -428 11 0 16 15 28 80 7 35 13
67 25 125 6 28 12 61 15 75 3 14 14 71 26 128 26 130 25 132 -26 118z m-78
-213 c-4 -21 -9 -56 -12 -78 -10 -71 -13 -70 -66 5 -28 39 -48 75 -44 78 8 9
83 30 109 31 16 1 18 -4 13 -36z"/>
<path d="M2449 943 c-5 -73 -13 -427 -10 -461 1 -9 14 -12 43 -10 l43 3 2 60
c1 33 4 140 6 237 4 172 3 177 -17 182 -41 11 -66 7 -67 -11z"/>
</g>
</svg>
